<?xml version="1.0" encoding="UTF-8"?><svg xmlns="http://www.w3.org/2000/svg" viewBox="0 0 665 136.77"><defs><style>.d{fill:#e91834;}.e{fill:#fff;}</style></defs><g id="a"/><g id="b"><g id="c"><path class="d" d="M55.94,136.77h-12.43c-4.18,0-7.57-3.4-7.57-7.57v-5.03c0-4.18,3.4-7.57,7.57-7.57h12.43c4.18,0,7.57,3.4,7.57,7.57v5.03c0,4.17-3.4,7.57-7.57,7.57Zm-12.43-14.7c-1.16,0-2.1,.94-2.1,2.1v5.03c0,1.16,.95,2.1,2.1,2.1h12.43c1.16,0,2.1-.94,2.1-2.1v-5.03c0-1.16-.94-2.1-2.1-2.1h-12.43Zm12.47-10.99h-12.86c-2.59,0-4.9-1-6.68-2.87-2.36-2.5-4.82-4.98-7.29-7.47C14.82,86.27,0,71.31,0,49.16,0,35.84,5.1,23.46,14.36,14.29,23.67,5.08,36.17,0,49.55,0s25.89,5.08,35.2,14.29c9.25,9.17,14.35,21.56,14.35,34.86,0,21.28-14.86,36.59-27.98,50.1-2.9,2.99-5.76,5.93-8.41,8.89-1.71,1.92-4.04,2.93-6.72,2.93ZM49.55,5.47c-11.94,0-23.06,4.51-31.34,12.71-8.21,8.13-12.73,19.13-12.73,30.97,0,19.91,14.02,34.05,27.57,47.73,2.5,2.52,4.98,5.03,7.38,7.56,.74,.78,1.63,1.16,2.7,1.16h12.86c1.11,0,1.98-.36,2.66-1.11,2.69-3,5.6-6,8.56-9.04,13-13.39,26.43-27.23,26.43-46.3,0-11.84-4.52-22.84-12.73-30.98-8.26-8.19-19.4-12.71-31.34-12.71Z"/><path class="d" d="M44.36,110.16c-8.33-8.99-22.43-31.51-22.43-58.86,0-29.72,11.68-51.3,27.78-51.3s27.78,21.57,27.78,51.3c0,26.7-9.79,41.16-18.43,53.91-1.04,1.54-2.08,3.07-3.08,4.59l-4.57-3c1.01-1.55,2.06-3.1,3.12-4.67,8.59-12.7,17.49-25.82,17.49-50.84S62.42,5.47,49.7,5.47,27.39,25.17,27.39,51.29c0,32.13,20.12,54.22,20.97,55.15l-4.01,3.72Z"/><rect class="d" x="46.97" y="2.74" width="5.47" height="105.57"/><g><path class="e" d="M141.92,49.53h19.61c10.06,0,16.92,5.62,16.92,14.96,0,10.11-7.36,15.32-17.3,15.32h-11.65v20.51h-7.58V49.53Zm7.58,24.03h11.12c6.6,0,10.1-3.12,10.1-8.89s-4.13-8.89-9.85-8.89h-11.38v17.78Z"/><path class="e" d="M233.18,74.66c0,14-7.96,26.39-24.05,26.39-15.14,0-23.48-11.56-23.48-26.12s8.65-26.12,24.09-26.12c14.4,0,23.44,10.68,23.44,25.86Zm-39.66,.05c0,10.78,5.38,20,15.93,20,11.41,0,15.87-9.43,15.87-19.94s-5.06-19.62-15.89-19.62-15.91,8.9-15.91,19.56Z"/><path class="e" d="M251.01,78.33v21.98h-7.44V49.53h20.31c10.56,0,16.19,5.74,16.19,13.65,0,6.64-3.78,10.58-8.42,11.96,3.84,1.08,7.48,4.08,7.48,12.95v2.24c0,3.48-.13,7.81,.69,9.98h-7.28c-.92-2.19-.9-6.12-.9-11.01v-1.02c0-6.91-1.92-9.96-10.86-9.96h-9.79Zm0-6.25h10.7c7.43,0,10.64-2.8,10.64-8.23s-3.36-8.08-9.97-8.08h-11.36v16.31Z"/><path class="e" d="M301.79,55.91h-16.22v-6.38h40.02v6.38h-16.23v44.4h-7.58V55.91Z"/><path class="e" d="M376.07,74.66c0,14-7.96,26.39-24.05,26.39-15.14,0-23.48-11.56-23.48-26.12s8.65-26.12,24.09-26.12c14.4,0,23.44,10.68,23.44,25.86Zm-39.66,.05c0,10.78,5.38,20,15.93,20,11.41,0,15.87-9.43,15.87-19.94s-5.06-19.62-15.89-19.62-15.91,8.9-15.91,19.56Z"/><path class="e" d="M415.06,55.91h-16.22v-6.38h40.02v6.38h-16.23v44.4h-7.58V55.91Z"/><path class="e" d="M453.49,78.33v21.98h-7.44V49.53h20.31c10.56,0,16.19,5.74,16.19,13.65,0,6.64-3.78,10.58-8.42,11.96,3.84,1.08,7.48,4.08,7.48,12.95v2.24c0,3.48-.13,7.81,.69,9.98h-7.28c-.92-2.19-.9-6.12-.9-11.01v-1.02c0-6.91-1.92-9.96-10.86-9.96h-9.79Zm0-6.25h10.7c7.43,0,10.64-2.8,10.64-8.23s-3.36-8.08-9.97-8.08h-11.36v16.31Z"/><path class="e" d="M501.81,85.74l-5.18,14.57h-7.48l17.93-50.79h9.33l18.7,50.79h-8l-5.36-14.57h-19.94Zm18.09-6.38c-4.61-12.85-7.2-19.9-8.32-23.9h-.07c-1.24,4.44-4.13,12.91-7.84,23.9h16.24Z"/><path class="e" d="M551.04,100.31l-18.38-50.79h8.1l8.68,24.97c2.55,7.38,5.01,14.61,6.14,19.36h.15c1.06-4.27,3.78-11.8,6.4-19.13l9.05-25.19h7.76l-18.98,50.79h-8.9Z"/><path class="e" d="M618.75,76.92h-25.07v17.01h27.56l-.95,6.38h-33.98V49.53h33.63v6.38h-26.26v14.63h25.07v6.38Z"/><path class="e" d="M630.18,49.53h7.54v44.4h26.26l-1,6.38h-32.8V49.53Z"/></g></g></g></svg>